<mxfile host="app.diagrams.net" agent="Mozilla/5.0 (Windows NT 10.0; Win64; x64) AppleWebKit/537.36 (KHTML, like Gecko) Chrome/131.0.0.0 Safari/537.36" version="25.0.1">
  <diagram name="Page-1" id="H0oItFghLZOZoXgkCqya">
    <mxGraphModel dx="794" dy="412" grid="1" gridSize="10" guides="1" tooltips="1" connect="1" arrows="1" fold="1" page="1" pageScale="1" pageWidth="850" pageHeight="1100" math="0" shadow="0">
      <root>
        <mxCell id="0" />
        <mxCell id="1" parent="0" />
        <mxCell id="eXfmXtKLwlziHuYKHeJJ-1" value="&lt;font style=&quot;font-size: 20px;&quot;&gt;User Service&lt;/font&gt;" style="rounded=0;whiteSpace=wrap;html=1;" vertex="1" parent="1">
          <mxGeometry x="220" y="20" width="400" height="60" as="geometry" />
        </mxCell>
        <mxCell id="eXfmXtKLwlziHuYKHeJJ-2" value="Customers" style="swimlane;fontStyle=0;childLayout=stackLayout;horizontal=1;startSize=30;horizontalStack=0;resizeParent=1;resizeParentMax=0;resizeLast=0;collapsible=1;marginBottom=0;whiteSpace=wrap;html=1;shadow=1;" vertex="1" parent="1">
          <mxGeometry x="20" y="130" width="370" height="280" as="geometry" />
        </mxCell>
        <mxCell id="eXfmXtKLwlziHuYKHeJJ-3" value="&lt;div style=&quot;line-height: 210%;&quot;&gt;&lt;div&gt;ID : String&lt;/div&gt;&lt;div&gt;Name : String&lt;/div&gt;&lt;div&gt;Phone : String&lt;/div&gt;&lt;div&gt;Email : String&lt;/div&gt;&lt;div&gt;Address : String&lt;/div&gt;&lt;div&gt;Pincode : String&lt;/div&gt;&lt;div&gt;IsActive : Boolean&lt;/div&gt;&lt;div&gt;CreationDate : ZonedDateTime&lt;/div&gt;&lt;div&gt;LastModifiedDate : ZonedDateTime&lt;/div&gt;&lt;/div&gt;" style="text;strokeColor=none;fillColor=none;align=left;verticalAlign=middle;spacingLeft=4;spacingRight=4;overflow=hidden;points=[[0,0.5],[1,0.5]];portConstraint=eastwest;rotatable=0;whiteSpace=wrap;html=1;" vertex="1" parent="eXfmXtKLwlziHuYKHeJJ-2">
          <mxGeometry y="30" width="370" height="250" as="geometry" />
        </mxCell>
        <mxCell id="eXfmXtKLwlziHuYKHeJJ-4" value="Employees" style="swimlane;fontStyle=0;childLayout=stackLayout;horizontal=1;startSize=30;horizontalStack=0;resizeParent=1;resizeParentMax=0;resizeLast=0;collapsible=1;marginBottom=0;whiteSpace=wrap;html=1;shadow=1;" vertex="1" parent="1">
          <mxGeometry x="420" y="200" width="370" height="580" as="geometry" />
        </mxCell>
        <mxCell id="eXfmXtKLwlziHuYKHeJJ-5" value="&lt;div style=&quot;line-height: 210%;&quot;&gt;&lt;div&gt;ID : String&lt;/div&gt;&lt;div&gt;EmployeeNumber : String&lt;/div&gt;&lt;div&gt;Name : String&lt;/div&gt;&lt;div&gt;RoleName : String&lt;/div&gt;&lt;div&gt;DepartmentName : String&lt;/div&gt;&lt;div&gt;Phone : String&lt;/div&gt;&lt;div&gt;SecondaryPhone : String&lt;/div&gt;&lt;div&gt;PersonalEmail : String&lt;/div&gt;&lt;div&gt;OfficialEmail : String&lt;/div&gt;&lt;div&gt;OfficialPhoneNumber : String&lt;/div&gt;&lt;div&gt;IsActive : Boolean&lt;/div&gt;&lt;div&gt;Address : String&lt;/div&gt;&lt;div&gt;Pincode : String&lt;/div&gt;&lt;div&gt;WarehouseNumber : String&lt;/div&gt;&lt;div&gt;JoiningDate : Date&lt;/div&gt;&lt;div&gt;Salary : Double&lt;/div&gt;&lt;div&gt;ReporterName : String&lt;/div&gt;&lt;div&gt;ReporterEmployeeNumber : String&lt;/div&gt;&lt;div&gt;CreationDate : ZonedDateTime&lt;/div&gt;&lt;div&gt;IsPresentlyWorkingInThisCompany : Boolean&lt;/div&gt;&lt;div&gt;LastModifiedDate : ZonedDateTime&lt;/div&gt;&lt;div&gt;&lt;br&gt;&lt;/div&gt;&lt;/div&gt;" style="text;strokeColor=none;fillColor=none;align=left;verticalAlign=middle;spacingLeft=4;spacingRight=4;overflow=hidden;points=[[0,0.5],[1,0.5]];portConstraint=eastwest;rotatable=0;whiteSpace=wrap;html=1;" vertex="1" parent="eXfmXtKLwlziHuYKHeJJ-4">
          <mxGeometry y="30" width="370" height="550" as="geometry" />
        </mxCell>
        <mxCell id="eXfmXtKLwlziHuYKHeJJ-6" value="Departments" style="swimlane;fontStyle=0;childLayout=stackLayout;horizontal=1;startSize=30;horizontalStack=0;resizeParent=1;resizeParentMax=0;resizeLast=0;collapsible=1;marginBottom=0;whiteSpace=wrap;html=1;shadow=1;" vertex="1" parent="1">
          <mxGeometry x="20" y="430" width="370" height="200" as="geometry" />
        </mxCell>
        <mxCell id="eXfmXtKLwlziHuYKHeJJ-7" value="&lt;div style=&quot;line-height: 210%;&quot;&gt;&lt;div&gt;ID : String&lt;/div&gt;&lt;div&gt;Name : String&lt;/div&gt;&lt;div&gt;IsActive : Boolean&lt;/div&gt;&lt;div&gt;IsSpecialAccessEnabled : Boolean&lt;/div&gt;&lt;div&gt;CreationDate : ZonedDateTime&lt;/div&gt;&lt;div&gt;LastModifiedDate : ZonedDateTime&lt;/div&gt;&lt;/div&gt;" style="text;strokeColor=none;fillColor=none;align=left;verticalAlign=middle;spacingLeft=4;spacingRight=4;overflow=hidden;points=[[0,0.5],[1,0.5]];portConstraint=eastwest;rotatable=0;whiteSpace=wrap;html=1;" vertex="1" parent="eXfmXtKLwlziHuYKHeJJ-6">
          <mxGeometry y="30" width="370" height="170" as="geometry" />
        </mxCell>
        <mxCell id="eXfmXtKLwlziHuYKHeJJ-8" value="Roles" style="swimlane;fontStyle=0;childLayout=stackLayout;horizontal=1;startSize=30;horizontalStack=0;resizeParent=1;resizeParentMax=0;resizeLast=0;collapsible=1;marginBottom=0;whiteSpace=wrap;html=1;shadow=1;" vertex="1" parent="1">
          <mxGeometry x="20" y="650" width="370" height="230" as="geometry" />
        </mxCell>
        <mxCell id="eXfmXtKLwlziHuYKHeJJ-9" value="&lt;div style=&quot;line-height: 210%;&quot;&gt;&lt;div&gt;ID : String&lt;/div&gt;&lt;div&gt;Name : String&lt;/div&gt;&lt;div&gt;IsActive : Boolean&lt;/div&gt;&lt;div&gt;IsSpecialAccessEnabled : Boolean&lt;/div&gt;&lt;div&gt;IsAdmin : Boolean&lt;/div&gt;&lt;div&gt;CreationDate : ZonedDateTime&lt;/div&gt;&lt;div&gt;LastModifiedDate : ZonedDateTime&lt;/div&gt;&lt;/div&gt;" style="text;strokeColor=none;fillColor=none;align=left;verticalAlign=middle;spacingLeft=4;spacingRight=4;overflow=hidden;points=[[0,0.5],[1,0.5]];portConstraint=eastwest;rotatable=0;whiteSpace=wrap;html=1;" vertex="1" parent="eXfmXtKLwlziHuYKHeJJ-8">
          <mxGeometry y="30" width="370" height="200" as="geometry" />
        </mxCell>
      </root>
    </mxGraphModel>
  </diagram>
</mxfile>
